<svg width="38" height="40" viewBox="0 0 38 40" fill="none" xmlns="http://www.w3.org/2000/svg">
<rect x="1" y="1" width="5" height="5" stroke="black" stroke-width="2"/>
<line x1="4" y1="6" x2="4" y2="34" stroke="black" stroke-width="2"/>
<rect x="1" y="39" width="5" height="5" transform="rotate(-90 1 39)" stroke="black" stroke-width="2"/>
<rect x="32" y="1" width="5" height="5" stroke="black" stroke-width="2"/>
<rect x="32" y="39" width="5" height="5" transform="rotate(-90 32 39)" stroke="black" stroke-width="2"/>
<line x1="35" y1="6" x2="35" y2="34" stroke="black" stroke-width="2"/>
<line x1="4.5" y1="35.5" x2="32.5" y2="35.5" stroke="black" stroke-width="2"/>
<line x1="4.5" y1="4.5" x2="32.5" y2="4.5" stroke="black" stroke-width="2"/>
<path d="M10.5 20L14.5 33H24L27.5 20L19 7.5L10.5 20Z" stroke="black" stroke-width="2"/>
<path d="M10.5 29.5H27.5" stroke="black" stroke-width="2"/>
<path d="M19 7.5V17" stroke="black" stroke-width="2"/>
<circle cx="19" cy="19" r="2" stroke="black" stroke-width="2"/>
</svg>
