<svg width="44" height="41" viewBox="0 0 44 41" fill="none" xmlns="http://www.w3.org/2000/svg">
<path d="M37.5704 30.423C36.5293 32.0746 33.9679 32.911 30.1331 32.4373C26.3846 31.9743 21.786 30.2827 17.2624 27.4312C12.7387 24.5797 9.22929 21.1604 7.19482 17.9781C5.11353 14.7226 4.76346 12.0509 5.80457 10.3993C6.84568 8.74765 9.40709 7.91123 13.2419 8.38495C16.9904 8.84801 21.589 10.5396 26.1126 13.3911C30.6363 16.2425 34.1457 19.6619 36.1802 22.8442C38.2615 26.0997 38.6115 28.7713 37.5704 30.423Z" stroke="black" stroke-width="2"/>
<path d="M21.6871 1.63632C23.6394 1.63632 25.7129 3.35713 27.3571 6.85382C28.9642 10.2718 29.9854 15.0641 29.9854 20.4114C29.9854 25.7588 28.9642 30.551 27.3571 33.969C25.7129 37.4657 23.6394 39.1865 21.6871 39.1865C19.7347 39.1865 17.6612 37.4657 16.0171 33.969C14.4099 30.551 13.3887 25.7588 13.3887 20.4114C13.3887 15.0641 14.4099 10.2718 16.0171 6.85382C17.6612 3.35713 19.7347 1.63632 21.6871 1.63632Z" stroke="black" stroke-width="2"/>
<path d="M5.80457 30.423C6.84568 32.0746 9.40709 32.911 13.2419 32.4373C16.9904 31.9743 21.589 30.2827 26.1126 27.4312C30.6363 24.5797 34.1457 21.1604 36.1802 17.9781C38.2615 14.7226 38.6115 12.0509 37.5704 10.3993C36.5293 8.74765 33.9679 7.91123 30.1331 8.38495C26.3846 8.84801 21.786 10.5396 17.2624 13.3911C12.7387 16.2425 9.22929 19.6619 7.19482 22.8442C5.11353 26.0997 4.76346 28.7713 5.80457 30.423Z" stroke="black" stroke-width="2"/>
<rect x="18" y="16" width="7" height="9" stroke="black" stroke-width="2"/>
<path d="M17.5 22H25" stroke="black" stroke-width="2"/>
<path d="M17.5 19H25" stroke="black" stroke-width="2"/>
</svg>
