<svg width="38" height="40" viewBox="0 0 38 40" fill="none" xmlns="http://www.w3.org/2000/svg">
<path d="M1.5 39.5V31C1.5 31 4.95926 27.6875 7.5 26C9.53805 24.6464 14 23 14 23" stroke="black" stroke-width="2" stroke-linejoin="round"/>
<path d="M6.5 34.5V39" stroke="black" stroke-width="2"/>
<path d="M36.5 39.5V31C36.5 31 33.0407 27.6875 30.5 26C28.462 24.6464 24 23 24 23" stroke="black" stroke-width="2" stroke-linejoin="round"/>
<path d="M31.5 34.5V39" stroke="black" stroke-width="2"/>
<path d="M18.5 23.5L14 20.5V29L18.5 24L17.5 27.5H20L19 24" stroke="black" stroke-width="2" stroke-linejoin="round"/>
<path d="M19.5 23.5L24 20.5V29L19.5 24L20.5 27.5H18L19 24" stroke="black" stroke-width="2" stroke-linejoin="round"/>
<path d="M16.5 28.5V39H21V28.5" stroke="black" stroke-width="2"/>
<path d="M26.9202 12.1794C26.9391 12.1873 26.9567 12.1948 26.9731 12.2019C26.7223 14.0805 26.247 14.5681 25.9962 14.7511C25.8473 14.8598 25.711 14.9168 25.4799 15.0136C25.4291 15.0348 25.3737 15.058 25.3126 15.0841C25.0112 15.2127 24.5387 15.4282 24.1889 15.9221C23.2939 17.1863 22.4281 18.3584 21.5218 19.2171C20.6127 20.0784 19.7918 20.5 18.9954 20.5C18.2292 20.5 17.0721 20.0298 15.8548 19.085C14.6674 18.1635 13.5684 16.9008 12.8944 15.5528L12.7454 15.2546L12.4472 15.1056C11.6339 14.6989 11.2436 14.2345 11.0056 13.7533C10.793 13.3235 10.6843 12.8549 10.5698 12.2679C10.6203 12.2508 10.6788 12.2314 10.7466 12.2095C10.7608 12.205 10.7756 12.2002 10.791 12.1952C11.0193 12.1219 11.372 12.0085 11.6648 11.838C11.9897 11.6488 12.4954 11.2357 12.4954 10.5C12.4954 7.69936 12.6415 5.59475 13.4899 4.1134C14.2624 2.76444 15.7495 1.74122 19.0308 1.50006C21.7194 1.50858 23.2378 2.48842 24.1495 3.95649C25.1221 5.52264 25.4954 7.78973 25.4954 10.5C25.4954 11.1147 25.8294 11.5295 26.1509 11.7721C26.4049 11.9637 26.7101 12.0914 26.8823 12.1635C26.8958 12.1691 26.9084 12.1744 26.9202 12.1794ZM10.2796 12.3839C10.2799 12.3837 10.2802 12.3835 10.2805 12.3833L10.2796 12.3839Z" stroke="black" stroke-width="2"/>
</svg>
